<mxfile host="app.diagrams.net" modified="2024-05-03T08:35:30.934Z" agent="Mozilla/5.0 (Windows NT 10.0; Win64; x64) AppleWebKit/537.36 (KHTML, like Gecko) Chrome/124.0.0.0 Safari/537.36" etag="owBBwL5HoAruqPDt9ID8" version="24.3.1" type="device">
  <diagram name="Page-1" id="fG5vR2eMFFuyB84v3exg">
    <mxGraphModel dx="1461" dy="652" grid="1" gridSize="10" guides="1" tooltips="1" connect="1" arrows="1" fold="1" page="1" pageScale="1" pageWidth="850" pageHeight="1100" math="0" shadow="0">
      <root>
        <mxCell id="0" />
        <mxCell id="1" parent="0" />
        <mxCell id="CK9XCY0KZO93zNfEin5v-1" value="Doctor" style="html=1;whiteSpace=wrap;" vertex="1" parent="1">
          <mxGeometry x="110" y="230" width="110" height="50" as="geometry" />
        </mxCell>
        <mxCell id="CK9XCY0KZO93zNfEin5v-2" value="Lab Staff" style="html=1;whiteSpace=wrap;" vertex="1" parent="1">
          <mxGeometry x="360" y="230" width="110" height="50" as="geometry" />
        </mxCell>
        <mxCell id="CK9XCY0KZO93zNfEin5v-3" value="request tests&lt;div&gt;send patient info&lt;/div&gt;" style="html=1;verticalAlign=bottom;endArrow=block;curved=0;rounded=0;entryX=0;entryY=0.25;entryDx=0;entryDy=0;" edge="1" parent="1" target="CK9XCY0KZO93zNfEin5v-2">
          <mxGeometry width="80" relative="1" as="geometry">
            <mxPoint x="220" y="243" as="sourcePoint" />
            <mxPoint x="300" y="240" as="targetPoint" />
          </mxGeometry>
        </mxCell>
        <mxCell id="CK9XCY0KZO93zNfEin5v-5" value="return results" style="html=1;verticalAlign=bottom;endArrow=block;curved=0;rounded=0;exitX=0;exitY=0.75;exitDx=0;exitDy=0;entryX=1;entryY=0.75;entryDx=0;entryDy=0;" edge="1" parent="1" source="CK9XCY0KZO93zNfEin5v-2" target="CK9XCY0KZO93zNfEin5v-1">
          <mxGeometry y="23" width="80" relative="1" as="geometry">
            <mxPoint x="390" y="340" as="sourcePoint" />
            <mxPoint x="470" y="340" as="targetPoint" />
            <mxPoint as="offset" />
          </mxGeometry>
        </mxCell>
      </root>
    </mxGraphModel>
  </diagram>
</mxfile>
